<svg width="352" height="83" viewBox="0 0 352 83" fill="none" xmlns="http://www.w3.org/2000/svg">
<rect x="1.5" y="14.5" width="349" height="67" rx="15.5" stroke="white" stroke-width="3"/>
<path d="M125.257 59V42.8H128.837V56.58H132.557V59H125.257ZM134.124 59V42.8H141.404V45.24H137.704V49.26H140.524V51.74H137.704V56.58H141.444V59H134.124ZM142.289 59L145.349 42.8H149.429L152.449 59H149.149L148.609 55.58H146.229L145.669 59H142.289ZM146.549 53.44H148.269L147.409 47.12L146.549 53.44ZM154.085 59V42.8H158.545C159.638 42.8 160.585 42.92 161.385 43.16C162.185 43.4 162.805 43.8333 163.245 44.46C163.698 45.0733 163.925 45.9467 163.925 47.08C163.925 47.7467 163.871 48.34 163.765 48.86C163.658 49.38 163.458 49.8333 163.165 50.22C162.885 50.5933 162.478 50.9067 161.945 51.16L164.165 59H160.465L158.685 51.74H157.665V59H154.085ZM157.665 49.68H158.665C159.171 49.68 159.565 49.5933 159.845 49.42C160.125 49.2333 160.318 48.9733 160.425 48.64C160.545 48.2933 160.605 47.88 160.605 47.4C160.605 46.7067 160.478 46.1667 160.225 45.78C159.971 45.3933 159.505 45.2 158.825 45.2H157.665V49.68ZM166.077 59V42.8H168.597L171.917 50.6V42.8H174.877V59H172.457L169.137 50.6V59H166.077ZM182.345 59L182.625 42.8H186.465L188.245 52.22L190.165 42.8H193.865L194.145 59H191.605L191.305 48.22L189.425 59H187.165L185.165 48.14L184.925 59H182.345ZM201.127 59.24C199.914 59.24 198.954 59.0267 198.247 58.6C197.54 58.1733 197.034 57.56 196.727 56.76C196.42 55.96 196.267 55.0067 196.267 53.9V47.88C196.267 46.76 196.42 45.8067 196.727 45.02C197.034 44.2333 197.54 43.6333 198.247 43.22C198.954 42.7933 199.914 42.58 201.127 42.58C202.354 42.58 203.32 42.7933 204.027 43.22C204.747 43.6333 205.26 44.2333 205.567 45.02C205.874 45.8067 206.027 46.76 206.027 47.88V53.9C206.027 55.0067 205.874 55.96 205.567 56.76C205.26 57.56 204.747 58.1733 204.027 58.6C203.32 59.0267 202.354 59.24 201.127 59.24ZM201.127 56.7C201.5 56.7 201.774 56.6067 201.947 56.42C202.12 56.2333 202.234 55.9933 202.287 55.7C202.34 55.4067 202.367 55.1067 202.367 54.8V47C202.367 46.68 202.34 46.38 202.287 46.1C202.234 45.8067 202.12 45.5667 201.947 45.38C201.774 45.1933 201.5 45.1 201.127 45.1C200.78 45.1 200.52 45.1933 200.347 45.38C200.174 45.5667 200.06 45.8067 200.007 46.1C199.954 46.38 199.927 46.68 199.927 47V54.8C199.927 55.1067 199.947 55.4067 199.987 55.7C200.04 55.9933 200.147 56.2333 200.307 56.42C200.48 56.6067 200.754 56.7 201.127 56.7ZM208.206 59V42.8H212.666C213.759 42.8 214.706 42.92 215.506 43.16C216.306 43.4 216.926 43.8333 217.366 44.46C217.819 45.0733 218.046 45.9467 218.046 47.08C218.046 47.7467 217.993 48.34 217.886 48.86C217.779 49.38 217.579 49.8333 217.286 50.22C217.006 50.5933 216.599 50.9067 216.066 51.16L218.286 59H214.586L212.806 51.74H211.786V59H208.206ZM211.786 49.68H212.786C213.293 49.68 213.686 49.5933 213.966 49.42C214.246 49.2333 214.439 48.9733 214.546 48.64C214.666 48.2933 214.726 47.88 214.726 47.4C214.726 46.7067 214.599 46.1667 214.346 45.78C214.093 45.3933 213.626 45.2 212.946 45.2H211.786V49.68ZM220.198 59V42.8H227.478V45.24H223.778V49.26H226.598V51.74H223.778V56.58H227.518V59H220.198Z" fill="white"/>
</svg>
